<?xml version="1.0" standalone="no"?>
<!DOCTYPE svg PUBLIC "-//W3C//DTD SVG 20010904//EN" "http://www.w3.org/TR/2001/REC-SVG-20010904/DTD/svg10.dtd">
<svg fill="#dc1a28" version="1.0" xmlns="http://www.w3.org/2000/svg" width="900.000000pt" height="900.000000pt" viewBox="0 0 900.000000 900.000000" preserveAspectRatio="xMidYMid meet">
  <metadata>Created by potrace 1.10, written by Peter Selinger 2001-2011</metadata>
  <g transform="translate(0.000000,900.000000) scale(0.100000,-0.100000)">
    <path d="M2127 8183 c-10 -10 4 -75 20 -91 7 -7 13 -25 13 -40 0 -15 7 -36 15
    -46 8 -11 15 -31 15 -45 0 -14 7 -35 15 -45 8 -11 15 -27 15 -37 0 -9 7 -30
    15 -45 8 -16 15 -38 15 -49 0 -11 7 -29 15 -39 8 -11 15 -27 15 -37 0 -9 7
    -30 15 -45 8 -16 15 -38 15 -49 0 -11 7 -29 15 -39 8 -11 15 -31 15 -45 0 -14
    7 -35 15 -45 8 -11 15 -29 15 -40 0 -12 7 -30 15 -40 8 -11 15 -32 15 -46 0
    -14 5 -31 11 -37 6 -6 14 -26 19 -44 9 -38 27 -88 47 -136 7 -17 13 -39 13
    -50 0 -10 7 -27 15 -37 8 -11 15 -27 15 -37 0 -9 7 -30 15 -45 8 -16 15 -38
    15 -49 0 -11 7 -29 15 -39 8 -11 15 -32 15 -47 0 -14 7 -32 15 -39 8 -7 15
    -24 15 -39 0 -14 7 -35 15 -45 8 -11 15 -31 15 -45 0 -14 7 -35 15 -45 8 -11
    15 -27 15 -37 0 -9 7 -30 15 -45 8 -16 15 -38 15 -49 0 -11 7 -29 15 -39 8
    -11 15 -31 15 -45 0 -14 7 -35 15 -45 8 -11 15 -27 15 -37 0 -9 7 -30 15 -45
    8 -16 15 -38 15 -49 0 -11 7 -29 15 -39 8 -11 15 -31 15 -45 0 -14 7 -35 15
    -45 8 -11 15 -31 15 -44 0 -13 7 -30 15 -38 8 -9 15 -27 15 -42 0 -15 7 -36
    15 -46 8 -11 15 -31 15 -45 0 -14 7 -35 15 -45 8 -11 15 -27 15 -37 0 -9 7
    -30 15 -45 8 -16 15 -38 15 -49 0 -11 7 -29 15 -39 8 -11 15 -31 15 -45 0 -14
    7 -35 15 -45 8 -11 15 -32 15 -48 0 -15 4 -28 10 -28 5 0 12 -16 16 -37 4 -20
    13 -48 20 -62 8 -14 14 -35 14 -46 0 -11 7 -29 15 -39 8 -11 15 -31 15 -45 0
    -14 7 -35 15 -45 8 -11 15 -32 15 -47 0 -14 7 -32 15 -39 8 -7 15 -26 15 -42
    0 -16 7 -36 15 -44 8 -9 15 -27 15 -42 0 -15 7 -36 15 -46 8 -11 15 -31 15
    -45 0 -14 7 -35 15 -45 8 -11 15 -32 15 -46 0 -14 5 -31 11 -37 6 -6 14 -26
    19 -44 11 -46 30 -98 46 -131 8 -14 14 -35 14 -46 0 -11 7 -33 15 -48 8 -16
    15 -38 15 -49 0 -11 7 -29 15 -39 8 -11 15 -31 15 -45 0 -14 7 -35 15 -45 8
    -11 15 -31 15 -45 0 -14 7 -35 15 -45 8 -11 15 -31 15 -45 0 -14 7 -35 15 -45
    8 -11 15 -31 15 -45 0 -14 7 -35 15 -45 8 -11 15 -32 15 -48 0 -15 4 -28 10
    -28 5 0 12 -16 16 -37 4 -20 13 -48 20 -62 8 -14 14 -33 14 -42 0 -9 7 -30 15
    -45 8 -16 15 -36 15 -45 0 -9 7 -30 15 -45 8 -16 15 -36 15 -45 0 -9 7 -30 15
    -45 8 -16 15 -36 15 -45 0 -9 7 -30 15 -45 8 -16 15 -36 15 -45 0 -9 7 -30 15
    -45 8 -16 15 -41 15 -56 0 -14 6 -28 13 -30 9 -4 13 -275 15 -1305 l2 -1300
    333 -9 c182 -5 477 -9 655 -9 l322 0 3 1280 c3 1257 5 1326 35 1380 6 11 14
    37 17 58 3 20 10 37 15 37 6 0 10 13 10 28 0 16 7 37 15 48 8 10 15 33 15 50
    0 17 7 37 15 44 8 7 15 25 15 39 0 15 7 36 15 47 8 10 15 33 15 50 0 17 7 37
    15 44 8 7 15 25 15 39 0 15 7 36 15 47 8 10 15 31 15 45 0 14 7 34 15 45 8 10
    15 31 15 45 0 14 7 34 15 45 8 10 15 31 15 45 0 14 7 34 15 45 8 10 15 31 15
    45 0 14 7 34 15 45 8 10 15 28 15 39 0 11 7 33 15 49 8 15 15 36 15 45 0 9 7
    29 15 45 8 15 15 36 15 45 0 9 7 29 15 45 8 15 15 36 15 45 0 10 7 26 15 37 8
    10 15 31 15 45 0 14 7 34 15 45 8 10 15 28 15 39 0 11 7 33 15 49 8 15 15 37
    15 48 0 11 6 32 14 46 16 33 35 85 46 131 5 18 13 38 19 44 6 6 11 23 11 37 0
    14 7 35 15 46 8 10 15 31 15 45 0 14 7 34 15 45 8 10 15 31 15 45 0 15 7 32
    15 39 8 7 15 25 15 39 0 15 7 36 15 47 8 10 15 31 15 45 0 14 7 34 15 45 8 10
    15 30 15 44 0 14 6 34 14 45 7 11 16 37 20 58 4 20 11 37 16 37 6 0 10 13 10
    28 0 16 7 37 15 48 8 10 15 31 15 45 0 14 7 34 15 45 8 10 15 28 15 39 0 11 7
    33 15 49 8 15 15 36 15 45 0 10 7 26 15 37 8 10 15 31 15 45 0 14 7 34 15 45
    8 10 15 31 15 45 0 14 7 34 15 45 8 10 15 31 15 45 0 15 7 32 15 39 8 7 15 25
    15 39 0 15 7 36 15 47 8 10 15 31 15 45 0 14 7 34 15 45 8 10 15 28 15 39 0
    11 7 33 15 49 8 15 15 36 15 45 0 10 7 26 15 37 8 10 15 27 15 37 0 11 6 33
    13 50 20 48 38 98 47 136 5 18 13 38 19 44 6 6 11 23 11 37 0 14 7 35 15 46 8
    10 15 28 15 40 0 11 7 29 15 40 8 10 15 31 15 45 0 14 7 34 15 45 8 10 15 30
    15 44 0 14 6 34 14 45 7 11 16 37 20 58 4 20 11 37 16 37 6 0 10 13 10 28 0
    16 7 37 15 48 8 10 15 31 15 45 0 14 7 34 15 45 8 10 15 28 15 40 0 11 7 29
    15 40 8 10 15 31 15 45 0 14 7 34 15 45 8 10 15 31 15 45 0 14 7 34 15 45 8
    10 15 28 15 40 0 11 7 29 15 40 8 10 15 31 15 45 0 14 7 34 15 45 8 10 15 30
    15 44 0 14 6 34 14 45 7 11 16 37 20 57 4 20 12 38 18 40 6 2 9 12 5 21 -6 16
    -53 17 -617 17 -402 0 -618 -4 -631 -10 -12 -7 -19 -21 -19 -38 0 -16 -7 -37
    -15 -48 -8 -10 -15 -33 -15 -50 0 -16 -7 -39 -15 -50 -8 -10 -15 -30 -15 -44
    0 -14 -7 -38 -15 -54 -8 -15 -15 -38 -15 -50 0 -11 -7 -34 -15 -50 -8 -15 -15
    -38 -15 -50 0 -12 -7 -31 -15 -42 -8 -10 -15 -33 -15 -50 0 -16 -7 -39 -15
    -50 -8 -10 -15 -33 -15 -50 0 -16 -7 -39 -15 -50 -8 -10 -15 -33 -15 -50 0
    -16 -7 -39 -15 -50 -8 -10 -15 -33 -15 -50 0 -16 -7 -39 -15 -50 -8 -10 -15
    -30 -15 -44 0 -14 -7 -38 -15 -54 -8 -15 -15 -38 -15 -50 0 -11 -7 -34 -15
    -50 -8 -15 -15 -38 -15 -50 0 -12 -7 -31 -15 -42 -8 -10 -15 -33 -15 -50 0
    -16 -7 -39 -15 -50 -8 -10 -15 -33 -15 -50 0 -16 -7 -39 -15 -50 -8 -10 -15
    -33 -15 -50 0 -16 -7 -39 -15 -50 -8 -10 -15 -33 -15 -50 0 -16 -7 -39 -15
    -50 -8 -10 -15 -30 -15 -44 0 -14 -7 -38 -15 -54 -8 -15 -15 -38 -15 -50 0
    -11 -7 -34 -15 -50 -8 -15 -15 -38 -15 -50 0 -12 -7 -31 -15 -42 -8 -10 -15
    -33 -15 -50 0 -16 -7 -39 -15 -50 -8 -10 -15 -33 -15 -50 0 -16 -7 -39 -15
    -50 -8 -10 -15 -33 -15 -50 0 -16 -7 -39 -15 -50 -8 -10 -15 -33 -15 -50 0
    -16 -7 -39 -15 -50 -8 -10 -15 -33 -15 -50 0 -16 -7 -39 -15 -50 -8 -10 -15
    -33 -15 -50 0 -16 -7 -39 -15 -50 -8 -10 -15 -33 -15 -50 0 -16 -7 -39 -15
    -50 -8 -10 -15 -30 -15 -44 0 -14 -7 -38 -15 -54 -8 -15 -15 -38 -15 -50 0
    -11 -7 -34 -15 -50 -8 -15 -15 -40 -15 -55 0 -15 -7 -36 -15 -47 -8 -10 -15
    -30 -15 -44 0 -14 -7 -38 -15 -54 -8 -15 -15 -38 -15 -50 0 -11 -7 -34 -15
    -50 -8 -15 -15 -40 -15 -55 0 -15 -7 -36 -15 -47 -8 -10 -15 -31 -15 -46 0
    -35 -10 -58 -24 -58 -17 0 -56 63 -56 92 0 14 -7 39 -15 54 -8 16 -15 40 -15
    54 -1 14 -7 36 -15 50 -8 14 -15 39 -15 55 0 17 -7 39 -15 49 -8 11 -15 30
    -15 42 0 12 -7 35 -15 50 -8 16 -15 43 -15 59 0 17 -7 39 -15 49 -8 11 -15 34
    -15 50 0 17 -7 40 -15 50 -8 11 -15 30 -15 42 0 12 -7 35 -15 50 -8 16 -15 43
    -15 59 0 17 -7 39 -15 49 -8 11 -15 34 -15 50 0 17 -7 40 -15 50 -8 11 -15 30
    -15 42 0 12 -7 35 -15 50 -8 16 -15 39 -15 50 0 12 -7 35 -15 50 -8 16 -15 40
    -15 54 0 14 -7 34 -15 44 -8 11 -15 34 -15 50 0 17 -7 40 -15 50 -8 11 -15 34
    -15 50 0 17 -7 40 -15 50 -8 11 -15 34 -15 50 0 17 -7 40 -15 50 -8 11 -15 34
    -15 50 0 17 -7 40 -15 50 -8 11 -15 34 -15 50 0 17 -7 40 -15 50 -8 11 -15 31
    -15 45 -1 14 -7 37 -15 51 -8 14 -14 38 -15 53 0 16 -7 35 -15 43 -8 9 -15 28
    -15 44 0 15 -7 41 -15 56 -8 16 -15 40 -15 54 0 14 -7 34 -15 44 -8 11 -15 34
    -15 50 0 17 -7 40 -15 50 -8 11 -15 34 -15 50 0 17 -7 40 -15 50 -8 11 -15 30
    -15 42 0 12 -7 35 -15 50 -8 16 -15 39 -15 50 0 12 -7 35 -15 50 -8 16 -15 40
    -15 54 0 14 -7 34 -15 44 -8 11 -15 34 -15 50 0 17 -7 40 -15 50 -8 11 -15 34
    -15 50 0 17 -7 40 -15 50 -8 11 -15 34 -15 50 0 17 -7 40 -15 50 -8 11 -15 34
    -15 50 0 17 -7 40 -15 50 -8 11 -15 30 -15 42 0 12 -7 35 -15 50 -8 16 -15 41
    -15 56 0 15 -4 29 -9 33 -5 3 -12 19 -16 35 l-7 30 -677 0 c-373 0 -681 -3
    -684 -7z"/>
  </g>
</svg>
